
<svg xmlns="http://www.w3.org/2000/svg" width="16" height="16" fill="none" viewBox="0 0 16 16">
    <path fill="#999" fill-rule="evenodd" d="M7.293 2.74c1.651-1.652 4.329-1.652 5.98 0 1.652 1.65 1.652 4.328 0 5.98l-1.37 1.37c-.39.39-1.024.39-1.415 0-.39-.39-.39-1.023 0-1.414l1.371-1.37c.87-.87.87-2.282 0-3.152-.87-.87-2.281-.87-3.152 0l-1.37 1.37c-.39.39-1.024.39-1.414 0-.39-.39-.39-1.024 0-1.414l1.37-1.37zm2.61 3.524c.39.39.39 1.024 0 1.414l-2.696 2.696c-.39.39-1.023.39-1.414 0-.39-.39-.39-1.024 0-1.415l2.695-2.695c.39-.39 1.024-.39 1.414 0zm-4.845.125c.39.39.39 1.023 0 1.414l-.917.917c-.87.87-.87 2.281 0 3.152.87.87 2.282.87 3.152 0l.917-.918c.39-.39 1.024-.39 1.415 0 .39.39.39 1.024 0 1.414l-.918.918c-1.651 1.651-4.329 1.651-5.98 0-1.652-1.652-1.652-4.329 0-5.98l.917-.917c.39-.39 1.023-.39 1.414 0z" clip-rule="evenodd"/>
</svg>
